<?xml version="1.0" encoding="UTF-8"?>
<svg width="41px" height="58px" viewBox="0 0 41 58" version="1.1" xmlns="http://www.w3.org/2000/svg" xmlns:xlink="http://www.w3.org/1999/xlink">
    <!-- Generator: Sketch 46.2 (44496) - http://www.bohemiancoding.com/sketch -->
    <title>noun_1089851_cc</title>
    <desc>Created with Sketch.</desc>
    <defs></defs>
    <g id="Page-1" stroke="none" stroke-width="1" fill="none" fill-rule="evenodd">
        <g id="Desktop-Home" transform="translate(-1189.000000, -16.000000)" fill-rule="nonzero" fill="#000000">
            <g id="Group-2" transform="translate(1189.000000, 16.000000)">
                <g id="noun_1089851_cc">
                    <g id="Group">
                        <g transform="translate(11.531250, 26.422222)" id="Shape">
                            <path d="M8.9046875,12.18 C5.509375,12.4377778 2.5625,11.7933333 0.25625,10.9555556 C0.25625,12.8244444 0.384375,14.6288889 0.5765625,16.3688889 C2.690625,18.4955556 8.9046875,18.4955556 8.9046875,18.4955556 C8.9046875,18.4955556 15.1828125,18.4311111 17.2328125,16.3688889 C17.425,14.6288889 17.553125,12.8244444 17.553125,10.9555556 C15.3109375,11.7933333 12.3640625,12.4377778 8.9046875,12.18 Z"></path>
                            <path d="M8.9046875,8.05555556 C8.9046875,8.05555556 12.7484375,8.18444444 16.9125,6.18666667 C14.9265625,0.0644444444 8.9046875,0.128888889 8.9046875,0.128888889 C8.9046875,0.128888889 2.8828125,7.77156117e-16 0.896875,6.18666667 C5.0609375,8.18444444 8.9046875,8.05555556 8.9046875,8.05555556 Z"></path>
                            <path d="M8.9046875,22.4266667 C5.7015625,22.4266667 3.2671875,21.9111111 1.5375,21.3311111 C1.3453125,20.5577778 1.153125,19.72 0.9609375,18.8822222 C2.3703125,25.8422222 5.3171875,30.9333333 8.9046875,30.9333333 C12.3,30.9333333 15.11875,26.4222222 16.528125,20.1711111 C16.4640625,20.5577778 16.3359375,20.9444444 16.2078125,21.3955556 C14.5421875,21.9111111 12.1078125,22.4266667 8.9046875,22.4266667 Z"></path>
                        </g>
                        <path d="M20.4359375,3.35111111 C12.3,3.35111111 14.8625,11.6644444 14.8625,11.6644444 L14.8625,11.6644444 C17.1046875,9.60222222 20.4359375,9.34444444 20.4359375,9.34444444 C20.4359375,9.34444444 23.7671875,9.53777778 26.009375,11.6644444 L26.009375,11.6644444 C26.009375,11.6644444 28.571875,3.35111111 20.4359375,3.35111111 Z" id="Shape"></path>
                        <path d="M0.1921875,54.3911111 L0,53.1022222 C2.7546875,52.6511111 3.3953125,45.8844444 3.3953125,43.5644444 C3.3953125,41.5022222 9.6734375,35.7022222 11.5953125,33.9622222 L12.428125,34.9288889 C8.6484375,38.28 4.6765625,42.5333333 4.6765625,43.5644444 C4.6765625,43.9511111 4.6125,53.6822222 0.1921875,54.3911111 Z" id="Shape"></path>
                        <path d="M0.128125,29.6444444 C0.0640625,29.6444444 0.0640625,29.6444444 0,29.6444444 L0.0640625,28.3555556 C0.0640625,28.3555556 0.128125,28.3555556 0.128125,28.3555556 C3.459375,28.3555556 5.89375,23.1355556 6.0859375,21.46 C6.3421875,19.14 11.659375,17.2066667 12.7484375,16.82 L13.1328125,18.0444444 C10.890625,18.8177778 7.43125,20.4933333 7.303125,21.5888889 C7.1109375,23.6511111 4.2921875,29.6444444 0.128125,29.6444444 Z" id="Shape"></path>
                        <path d="M13.0046875,15.2733333 C12.04375,15.1444444 6.9828125,14.3066667 5.9578125,12.9533333 C5.5734375,12.5022222 5.38125,11.6644444 5.125,10.6333333 C4.5484375,8.18444444 3.971875,6.25111111 2.1140625,6.25111111 C2.1140625,6.25111111 2.05,6.25111111 2.05,6.25111111 L1.9859375,4.96222222 C5.0609375,4.83333333 5.8296875,8.12 6.3421875,10.3111111 C6.534375,11.02 6.7265625,11.8577778 6.91875,12.1155556 C7.43125,12.76 10.5703125,13.5333333 13.196875,13.9844444 L13.0046875,15.2733333 Z" id="Shape"></path>
                        <path d="M18.1296875,3.93111111 L16.8484375,3.80222222 L17.4890625,3.86666667 L16.8484375,3.86666667 C16.8484375,3.86666667 16.8484375,3.28666667 16.015625,2.70666667 C15.11875,2.06222222 13.196875,1.28888889 9.1609375,1.28888889 L9.1609375,0 C13.325,0 16.0796875,0.708888889 17.3609375,2.19111111 C18.19375,3.02888889 18.1296875,3.80222222 18.1296875,3.93111111 Z" id="Shape"></path>
                        <g transform="translate(10.890625, 31.577778)" id="Shape">
                            <path d="M9.5453125,17.9155556 C9.5453125,17.9155556 9.5453125,17.9155556 9.5453125,17.9155556 C6.790625,17.9155556 4.2921875,17.5288889 1.9859375,16.82 C1.79375,16.7555556 1.6015625,16.5622222 1.5375,16.3688889 C1.0890625,14.7577778 0.76875,13.0177778 0.5765625,11.2133333 C0.5125,10.9555556 0.7046875,10.6977778 0.9609375,10.5688889 C1.2171875,10.44 1.4734375,10.5044444 1.665625,10.6977778 C3.203125,12.2444444 7.8796875,12.6311111 9.5453125,12.6311111 C11.2109375,12.6311111 15.8875,12.2444444 17.425,10.6977778 C17.6171875,10.5044444 17.9375,10.44 18.1296875,10.5688889 C18.3859375,10.6977778 18.5140625,10.9555556 18.5140625,11.2133333 C18.2578125,13.0177778 17.9375,14.7577778 17.4890625,16.3688889 C17.425,16.5622222 17.296875,16.7555556 17.040625,16.82 C14.8625,17.5933333 12.3,17.9155556 9.5453125,17.9155556 Z M2.7546875,15.7244444 C4.8046875,16.3688889 7.1109375,16.6911111 9.609375,16.6911111 C9.609375,16.6911111 9.609375,16.6911111 9.609375,16.6911111 C12.04375,16.6911111 14.35,16.3688889 16.4640625,15.7244444 C16.7203125,14.6933333 16.9765625,13.5977778 17.1046875,12.5022222 C14.35,13.8555556 9.865625,13.92 9.609375,13.92 C9.353125,13.92 4.86875,13.8555556 2.1140625,12.5022222 C2.2421875,13.5977778 2.4984375,14.6933333 2.7546875,15.7244444 Z"></path>
                            <path d="M11.2109375,7.73333333 C10.634375,7.73333333 10.121875,7.73333333 9.5453125,7.66888889 C6.4703125,7.92666667 3.5234375,7.47555556 0.640625,6.38 C0.384375,6.31555556 0.25625,6.05777778 0.25625,5.8 L0.25625,5.54222222 C0.25625,3.80222222 0.5125,2.19111111 0.9609375,0.837777778 C1.025,0.644444444 1.153125,0.515555556 1.3453125,0.451111111 C1.5375,0.386666667 1.7296875,0.386666667 1.8578125,0.451111111 C5.8296875,2.38444444 9.5453125,2.25555556 9.609375,2.25555556 C9.609375,2.25555556 9.6734375,2.25555556 9.6734375,2.25555556 C9.7375,2.25555556 13.453125,2.38444444 17.425,0.451111111 C17.6171875,0.386666667 17.809375,0.386666667 17.9375,0.451111111 C18.1296875,0.515555556 18.2578125,0.644444444 18.321875,0.837777778 C18.7703125,2.19111111 19.0265625,3.80222222 19.0265625,5.54222222 L19.0265625,5.8 C19.0265625,6.05777778 18.834375,6.31555556 18.6421875,6.38 C16.14375,7.21777778 13.709375,7.73333333 11.2109375,7.73333333 Z M9.5453125,6.38 C9.609375,6.38 9.609375,6.38 9.5453125,6.38 C12.3,6.63777778 14.990625,6.25111111 17.6171875,5.34888889 C17.6171875,4.12444444 17.4890625,2.96444444 17.2328125,1.93333333 C13.3890625,3.60888889 9.99375,3.60888889 9.609375,3.54444444 C9.225,3.54444444 5.8296875,3.60888889 1.9859375,1.93333333 C1.7296875,2.96444444 1.6015625,4.06 1.6015625,5.34888889 C4.1,6.25111111 6.790625,6.57333333 9.5453125,6.38 C9.5453125,6.38 9.5453125,6.38 9.5453125,6.38 Z"></path>
                        </g>
                        <g transform="translate(12.812500, 9.022222)" id="Shape">
                            <path d="M7.6234375,8.63555556 C7.6234375,8.63555556 3.715625,8.7 0.384375,11.8577778 C0.25625,10.8266667 1.0890625,16.4977778 2.8828125,19.0111111 C5.1890625,17.4644444 7.6234375,17.4644444 7.6234375,17.4644444 C7.6234375,17.4644444 10.0578125,17.4 12.3640625,19.0111111 C14.1578125,16.4977778 14.990625,10.8266667 14.8625,11.8577778 C11.5953125,8.76444444 7.6234375,8.63555556 7.6234375,8.63555556 Z"></path>
                            <path d="M7.6234375,0.322222222 C7.6234375,0.322222222 0.0640625,0.837777778 0.0640625,7.47555556 C0.0640625,7.47555556 0.0640625,7.54 0.0640625,7.54 C3.3953125,4.12444444 7.6234375,3.99555556 7.6234375,3.99555556 C7.6234375,3.99555556 11.8515625,4.12444444 15.1828125,7.54 C15.1828125,7.54 15.1828125,7.47555556 15.1828125,7.47555556 C15.1828125,0.837777778 7.6234375,0.322222222 7.6234375,0.322222222 Z"></path>
                        </g>
                        <path d="M20.4359375,58 C17.809375,58 15.375,55.68 13.6453125,51.4911111 C12.04375,47.56 11.146875,42.4688889 11.146875,37.12 C11.146875,33.3822222 12.171875,30.5466667 14.1578125,28.5488889 C16.784375,25.9066667 20.24375,25.9066667 20.5,25.9066667 C20.75625,25.9066667 24.1515625,25.9066667 26.8421875,28.5488889 C28.828125,30.4822222 29.853125,33.3822222 29.853125,37.12 C29.7890625,47.3666667 26.265625,58 20.4359375,58 Z M20.4359375,27.1955556 C20.24375,27.1955556 17.2328125,27.26 14.990625,29.4511111 C13.2609375,31.1911111 12.3640625,33.7044444 12.3640625,37.0555556 C12.3640625,42.2111111 13.2609375,47.2377778 14.7984375,50.9755556 C16.3359375,54.6488889 18.321875,56.7111111 20.4359375,56.7111111 C24.7921875,56.7111111 28.5078125,47.7533333 28.5078125,37.0555556 C28.5078125,33.7044444 27.6109375,31.1266667 25.88125,29.4511111 C23.575,27.1955556 20.5,27.1955556 20.4359375,27.1955556 C20.4359375,27.1955556 20.4359375,27.1955556 20.4359375,27.1955556 L20.4359375,27.1955556 C20.4359375,27.1955556 20.4359375,27.1955556 20.4359375,27.1955556 Z" id="Shape"></path>
                        <path d="M15.6953125,28.6777778 C15.503125,28.6777778 15.3109375,28.6133333 15.1828125,28.42 C13.325,25.7777778 12.2359375,21.3955556 12.2359375,16.4977778 C12.2359375,9.34444444 20.3078125,8.7 20.371875,8.7 C20.371875,8.7 20.4359375,8.7 20.4359375,8.7 C20.5,8.7 28.571875,9.28 28.571875,16.4977778 C28.571875,21.46 27.4828125,25.7777778 25.625,28.42 C25.4328125,28.6777778 25.0484375,28.8066667 24.728125,28.6133333 C22.6140625,27.1955556 20.371875,27.1955556 20.371875,27.1955556 C20.3078125,27.1955556 18.065625,27.1955556 15.9515625,28.6133333 C15.9515625,28.6777778 15.8234375,28.6777778 15.6953125,28.6777778 Z M20.4359375,9.98888889 C19.7953125,10.0533333 13.5171875,10.6977778 13.5171875,16.4977778 C13.5171875,20.8155556 14.4140625,24.7466667 15.8875,27.1955556 C18.1296875,25.9066667 20.371875,25.9066667 20.4359375,25.9066667 C20.5,25.9066667 22.7421875,25.9066667 24.984375,27.1955556 C26.4578125,24.7466667 27.3546875,20.8155556 27.3546875,16.4977778 C27.3546875,10.6977778 21.0765625,10.0533333 20.4359375,9.98888889 Z" id="Shape"></path>
                        <path d="M26.009375,12.3088889 C26.009375,12.3088889 25.9453125,12.3088889 25.9453125,12.3088889 C25.8171875,12.3088889 25.6890625,12.2444444 25.5609375,12.1155556 C23.6390625,10.3111111 20.8203125,9.98888889 20.4359375,9.98888889 C20.0515625,10.0533333 17.2328125,10.3111111 15.3109375,12.1155556 C15.1828125,12.2444444 15.0546875,12.3088889 14.8625,12.3088889 C14.60625,12.3088889 14.35,12.1155556 14.221875,11.8577778 C14.1578125,11.6644444 12.940625,7.66888889 14.9265625,4.96222222 C16.015625,3.48 17.8734375,2.70666667 20.371875,2.70666667 L20.371875,2.70666667 C22.8703125,2.70666667 24.728125,3.48 25.8171875,4.96222222 C27.803125,7.66888889 26.5859375,11.6644444 26.521875,11.8577778 C26.5859375,12.1155556 26.3296875,12.3088889 26.009375,12.3088889 Z M20.4359375,8.7 C20.5,8.7 20.5,8.7 20.4359375,8.7 C20.628125,8.7 23.31875,8.89333333 25.625,10.5044444 C25.8171875,9.28 25.9453125,7.21777778 24.85625,5.73555556 C24.0234375,4.57555556 22.4859375,3.99555556 20.4359375,3.99555556 C18.321875,3.99555556 16.8484375,4.57555556 16.015625,5.73555556 C14.9265625,7.21777778 15.0546875,9.28 15.246875,10.5044444 C17.553125,8.89333333 20.3078125,8.7 20.4359375,8.7 C20.4359375,8.7 20.4359375,8.7 20.4359375,8.7 Z" id="Shape"></path>
                        <path d="M40.8078125,54.3911111 C36.3234375,53.6822222 36.259375,43.6933333 36.259375,43.5644444 C36.259375,42.5333333 32.2234375,38.28 28.5078125,34.9288889 L29.340625,33.9622222 C31.2625,35.7022222 37.540625,41.4377778 37.540625,43.5644444 C37.540625,46.4644444 38.3734375,52.6511111 41,53.1022222 L40.8078125,54.3911111 Z" id="Shape"></path>
                        <path d="M40.8078125,29.6444444 C36.64375,29.6444444 33.825,23.6511111 33.6328125,21.5888889 C33.5046875,20.4933333 30.109375,18.8177778 27.803125,18.0444444 L28.1875,16.82 C29.2765625,17.2066667 34.59375,19.14 34.85,21.46 C35.0421875,23.1355556 37.4765625,28.3555556 40.8078125,28.3555556 C40.8078125,28.3555556 40.871875,28.3555556 40.871875,28.3555556 L40.9359375,29.6444444 C40.871875,29.6444444 40.8078125,29.6444444 40.8078125,29.6444444 Z" id="Shape"></path>
                        <path d="M27.8671875,15.2733333 L27.675,13.9844444 C30.3015625,13.5977778 33.440625,12.76 33.953125,12.1155556 C34.1453125,11.8577778 34.3375,11.02 34.5296875,10.3111111 C35.0421875,8.12 35.8109375,4.83333333 38.8859375,4.96222222 L38.821875,6.25111111 C36.9640625,6.18666667 36.3234375,8.12 35.746875,10.6333333 C35.490625,11.6644444 35.2984375,12.5022222 34.9140625,12.9533333 C33.8890625,14.2422222 28.8921875,15.08 27.8671875,15.2733333 Z" id="Shape"></path>
                        <path d="M22.80625,3.93111111 C22.80625,3.86666667 22.7421875,3.02888889 23.575,2.19111111 C24.85625,0.708888889 27.6109375,0 31.775,0 L31.775,1.28888889 C26.8421875,1.28888889 25.1125,2.38444444 24.471875,3.02888889 C24.0875,3.48 24.0875,3.80222222 24.0875,3.80222222 L22.80625,3.93111111 Z" id="Shape"></path>
                    </g>
                </g>
            </g>
        </g>
    </g>
</svg>