<?xml version="1.0" encoding="UTF-8"?>
<svg width="37px" height="40px" viewBox="0 0 37 40" version="1.1" xmlns="http://www.w3.org/2000/svg" xmlns:xlink="http://www.w3.org/1999/xlink">
    <!-- Generator: Sketch 46.2 (44496) - http://www.bohemiancoding.com/sketch -->
    <title>Group 3</title>
    <desc>Created with Sketch.</desc>
    <defs>
        <rect id="path-1" x="0" y="0" width="37" height="40" rx="2"></rect>
    </defs>
    <g id="Page-1" stroke="none" stroke-width="1" fill="none" fill-rule="evenodd">
        <g id="Desktop-Home" transform="translate(-492.000000, -784.000000)">
            <g id="Group-3" transform="translate(492.000000, 784.000000)">
                <g id="Rectangle-4-Copy-4">
                    <use fill="#E44480" fill-rule="evenodd" xlink:href="#path-1"></use>
                    <rect stroke="#C32362" stroke-width="1" x="0.5" y="0.5" width="36" height="39" rx="2"></rect>
                </g>
                <g id="Page-1-Copy" transform="translate(18.500000, 13.500000) scale(-1, -1) rotate(90.000000) translate(-18.500000, -13.500000) translate(15.000000, 6.000000)" stroke="#FFFFFF" stroke-width="1.5" fill="#FFFFFF">
                    <path d="M3.50125595,4.00000404 C3.45311803,3.99969971 3.40689865,4.01659 3.37358581,4.04717512 L-3.95175043,10.7424249 C-4.01820169,10.8031386 -4.01575991,10.8994589 -3.94599481,10.9575859 C-3.8762297,11.0154085 -3.76600083,11.0132782 -3.69937515,10.9524123 L3.49986065,4.37250339 L10.698922,10.9524123 C10.7651989,11.0135825 10.8757766,11.0160172 10.9455417,10.9583467 C11.0154812,10.9005241 11.0184462,10.8040516 10.9521694,10.7430336 L10.9512973,10.7424249 L3.62596108,4.04717512 C3.5933459,4.01735083 3.54852181,4.00030837 3.50125595,4.00000404" id="Fill-1" transform="translate(3.500000, 7.500000) rotate(90.000000) translate(-3.500000, -7.500000) "></path>
                </g>
                <g id="Page-1-Copy" transform="translate(18.500000, 27.500000) scale(-1, 1) rotate(90.000000) translate(-18.500000, -27.500000) translate(15.000000, 20.000000)" stroke="#FFFFFF" stroke-width="1.5" fill="#FFFFFF">
                    <path d="M3.50125595,4.00000404 C3.45311803,3.99969971 3.40689865,4.01659 3.37358581,4.04717512 L-3.95175043,10.7424249 C-4.01820169,10.8031386 -4.01575991,10.8994589 -3.94599481,10.9575859 C-3.8762297,11.0154085 -3.76600083,11.0132782 -3.69937515,10.9524123 L3.49986065,4.37250339 L10.698922,10.9524123 C10.7651989,11.0135825 10.8757766,11.0160172 10.9455417,10.9583467 C11.0154812,10.9005241 11.0184462,10.8040516 10.9521694,10.7430336 L10.9512973,10.7424249 L3.62596108,4.04717512 C3.5933459,4.01735083 3.54852181,4.00030837 3.50125595,4.00000404" id="Fill-1" transform="translate(3.500000, 7.500000) rotate(90.000000) translate(-3.500000, -7.500000) "></path>
                </g>
            </g>
        </g>
    </g>
</svg>